# xmcd
#
# Track frame offsets:
#	150
#	6600
#	19847
#	40239
#	66960
#	78617
#	90652
#	104792
#	115327
#	129253
#
# Disc length: 2028
#
# Revision: 1
# Processed by: cddbd v1.5.1PL0 Copyright (c) Steve Scherf et al.
# Submitted via: dBpowerAMP V4.0
# Normalized: r0:TDELIM( - )
#
DISCID=8807ea0a
DTITLE=Various Artist - Blues Love Songs
DYEAR=1900
DGENRE=
TTITLE0=Vera Ward Hall - Another man done gone
TTITLE1=Dirty Dozen Brass band - Ruler of my Heart
TTITLE2=Ann Peebles - Tears in Heaven
TTITLE3=Ella Fitzgerald - Love for sale
TTITLE4=Nina Simone - Little girl blue
TTITLE5=Ella Mae Moore - Buzz me
TTITLE6=Elmore James Jnr - Make a little love
TTITLE7=Bobby Bland - I'll take care of you
TTITLE8=Charles Brown - Let's just be friends
TTITLE9=Taj Mahal and Toumani Diabate - Queen Bee
EXTD=
EXTT0=
EXTT1=
EXTT2=
EXTT3=
EXTT4=
EXTT5=
EXTT6=
EXTT7=
EXTT8=
EXTT9=
PLAYORDER=
